<?xml version="1.0" encoding="utf-8"?>
<!-- Generator: Adobe Illustrator 23.0.1, SVG Export Plug-In . SVG Version: 6.00 Build 0)  -->
<svg version="1.1" id="Camada_1" xmlns="http://www.w3.org/2000/svg" xmlns:xlink="http://www.w3.org/1999/xlink" x="0px" y="0px"
	 viewBox="0 0 48 48" style="enable-background:new 0 0 48 48;" xml:space="preserve">
<g>
	<path d="M8.04,32.27c0.81-0.93,1.55-1.77,2.28-2.61c0.04,0.01,0.08,0.03,0.12,0.04c0,0.34,0,0.68,0,1.01
		c0.01,2.92,0.03,5.85,0.02,8.77c0,0.41,0.11,0.53,0.53,0.54c0.61,0.01,0.98-0.22,1.25-0.78c3.93-8.08,7.87-16.14,11.81-24.21
		c0.72-1.47,1.43-2.93,2.13-4.41c0.13-0.28,0.3-0.39,0.61-0.38c0.95,0.01,1.9,0,2.85-0.02c0.7-0.01,1.05-0.4,1.06-1.1
		c0-0.76-0.32-1.13-1.06-1.14c-1.22-0.02-2.44-0.02-3.66,0c-0.73,0.01-1.24,0.36-1.57,1.05c-2.06,4.27-4.14,8.53-6.22,12.79
		c-1.68,3.44-3.36,6.89-5.04,10.33c-0.08,0.17-0.17,0.33-0.26,0.5c-0.04,0-0.08-0.01-0.12-0.01c0-3.01,0-6.03,0-9.04
		c-0.05-0.02-0.1-0.04-0.14-0.06c-0.16,0.16-0.32,0.3-0.47,0.47c-1.61,1.8-3.22,3.6-4.84,5.39c-0.22,0.24-0.28,0.44-0.14,0.75
		C7.48,30.8,7.73,31.48,8.04,32.27z"/>
	<path d="M26.13,33.97c0.3-0.22,0.61-0.38,0.85-0.62c0.52-0.53,0.53-1.4,0.06-1.88c-0.49-0.5-1.36-0.48-1.91,0.03
		c-0.84,0.78-0.82,2.23,0.05,2.98c1.05,0.91,2.78,1.05,3.95,0.3c0.37-0.23,0.72-0.5,1.03-0.81c0.29-0.3,0.51-0.67,0.78-1.04
		c0.25,0.39,0.45,0.78,0.73,1.1c1.26,1.44,3.39,1.65,5.07,0.47c1.33-0.94,2.35-2.16,2.89-3.74c0.08-0.24,0.18-0.49,0.17-0.73
		c-0.01-0.2-0.11-0.51-0.25-0.57c-0.26-0.11-0.6-0.12-0.76,0.24c-0.13,0.3-0.24,0.61-0.36,0.92c-0.44,1.2-1.09,2.27-2.11,3.05
		c-0.39,0.3-0.86,0.54-1.33,0.65c-1.09,0.27-1.97-0.32-2.09-1.44c-0.08-0.72-0.03-1.48,0.12-2.19c0.51-2.31,1.1-4.61,1.67-6.91
		c0.28-1.11,0.74-2.13,1.5-3.01c0.77-0.89,1.96-1.04,2.98-0.36c-0.13,0.08-0.27,0.12-0.36,0.22c-0.25,0.27-0.55,0.52-0.72,0.84
		c-0.25,0.49-0.24,1.01,0.16,1.45c0.35,0.38,0.93,0.49,1.48,0.25c0.68-0.3,1.1-0.82,1.17-1.58c0.07-0.75-0.18-1.36-0.82-1.79
		c-1.7-1.15-3.83-0.81-5.11,0.82c-0.21,0.27-0.4,0.55-0.6,0.84c-0.05-0.07-0.08-0.1-0.1-0.14c-1.24-2.63-4.2-2.67-5.96-1.29
		c-1.21,0.94-2.16,2.09-2.69,3.55c-0.08,0.22-0.15,0.45-0.2,0.68c-0.06,0.29-0.05,0.59,0.3,0.7c0.34,0.1,0.67,0.08,0.85-0.28
		c0.15-0.31,0.26-0.64,0.39-0.96c0.42-1.08,0.99-2.08,1.89-2.83c0.41-0.34,0.91-0.64,1.41-0.79c1.1-0.33,2.05,0.25,2.22,1.39
		c0.1,0.68,0.05,1.42-0.1,2.09c-0.58,2.54-1.19,5.08-1.88,7.59c-0.22,0.81-0.67,1.59-1.14,2.3C28.63,34.53,27.19,34.71,26.13,33.97z
		"/>
</g>
</svg>
