<?xml version="1.0" encoding="utf-8"?>
<!-- Generator: Adobe Illustrator 23.0.1, SVG Export Plug-In . SVG Version: 6.00 Build 0)  -->
<svg version="1.1" id="Camada_1" xmlns="http://www.w3.org/2000/svg" xmlns:xlink="http://www.w3.org/1999/xlink" x="0px" y="0px"
	 viewBox="0 0 48 48" style="enable-background:new 0 0 48 48;" xml:space="preserve">
<style type="text/css">
	.st0{fill:#FE0101;}
	.st1{fill:#FEFAFA;}
</style>
<g>
	<path class="st0" d="M23.41,35.85c3.9,0.06,7.81,0.03,11.7-0.3c0.53-0.05,1.07-0.11,1.6-0.2c1.9-0.33,3.14-1.51,3.57-3.41
		c0.49-2.15,0.55-4.35,0.61-6.55c0.07-2.93,0.02-5.87-0.51-8.77c-0.43-2.37-1.65-3.55-4.01-3.92c-2.15-0.34-4.31-0.4-6.48-0.47
		c-5.36-0.18-10.71-0.14-16.06,0.21c-0.89,0.06-1.79,0.14-2.67,0.31c-1.86,0.35-3.06,1.51-3.45,3.34c-0.67,3.13-0.68,6.33-0.61,9.51
		c0.05,2.1,0.11,4.21,0.57,6.28c0.42,1.89,1.71,3.13,3.61,3.45c2.3,0.38,4.64,0.43,6.96,0.51C19.98,35.9,21.7,35.85,23.41,35.85z
		 M29.38,24.02c-0.12,0.09-0.18,0.15-0.26,0.19c-2.7,1.56-5.4,3.11-8.09,4.69c-0.42,0.25-0.41,0.05-0.41-0.28
		c0.01-3.11,0-6.23,0.01-9.34c0-0.08-0.04-0.18,0.12-0.27C23.59,20.66,26.46,22.33,29.38,24.02z"/>
	<path class="st1" d="M29.38,24.02c-2.92-1.69-5.79-3.36-8.64-5.01c-0.15,0.09-0.12,0.19-0.12,0.27c0,3.11,0,6.23-0.01,9.34
		c0,0.33-0.01,0.53,0.41,0.28c2.69-1.57,5.4-3.13,8.09-4.69C29.19,24.17,29.26,24.11,29.38,24.02z"/>
</g>
</svg>
